<mxfile host="65bd71144e" scale="1" border="20">
    <diagram id="yorQoxsOnP392Yn3CyUb" name="Page-1">
        <mxGraphModel dx="1581" dy="1845" grid="1" gridSize="10" guides="1" tooltips="1" connect="1" arrows="1" fold="1" page="1" pageScale="1" pageWidth="827" pageHeight="1169" math="0" shadow="0">
            <root>
                <mxCell id="0"/>
                <mxCell id="1" parent="0"/>
                <mxCell id="60" value="" style="rounded=0;whiteSpace=wrap;html=1;fontSize=14;fontColor=#000000;fillColor=none;strokeColor=#3399FF;" vertex="1" parent="1">
                    <mxGeometry x="-340" y="-120" width="100" height="205.41" as="geometry"/>
                </mxCell>
                <mxCell id="33" style="edgeStyle=none;html=1;entryX=0;entryY=0.5;entryDx=0;entryDy=0;entryPerimeter=0;fontSize=14;fontColor=#D86613;strokeWidth=2;" edge="1" parent="1" source="18" target="32">
                    <mxGeometry relative="1" as="geometry"/>
                </mxCell>
                <mxCell id="36" style="edgeStyle=orthogonalEdgeStyle;html=1;entryX=0;entryY=0.5;entryDx=0;entryDy=0;entryPerimeter=0;fontSize=14;fontColor=#D86613;strokeWidth=2;" edge="1" parent="1" source="18" target="34">
                    <mxGeometry relative="1" as="geometry">
                        <Array as="points">
                            <mxPoint x="910" y="200"/>
                            <mxPoint x="910" y="79"/>
                        </Array>
                    </mxGeometry>
                </mxCell>
                <mxCell id="66" style="edgeStyle=orthogonalEdgeStyle;html=1;entryX=0.5;entryY=1;entryDx=0;entryDy=0;entryPerimeter=0;fontSize=14;fontColor=#000000;strokeColor=#000000;strokeWidth=2;" edge="1" parent="1" source="18" target="37">
                    <mxGeometry relative="1" as="geometry">
                        <Array as="points">
                            <mxPoint x="580" y="-40"/>
                            <mxPoint x="477" y="-40"/>
                        </Array>
                    </mxGeometry>
                </mxCell>
                <mxCell id="18" value="        Fargate" style="fillColor=none;strokeColor=#DD3522;verticalAlign=top;fontStyle=0;fontColor=#D86613;align=left;fontSize=14;" vertex="1" parent="1">
                    <mxGeometry x="360" y="40" width="440" height="320" as="geometry"/>
                </mxCell>
                <mxCell id="31" style="edgeStyle=none;html=1;entryX=0.5;entryY=1;entryDx=0;entryDy=0;entryPerimeter=0;fontSize=14;fontColor=#D86613;strokeWidth=2;fillColor=#1ba1e2;strokeColor=#000000;" edge="1" parent="1" source="2" target="30">
                    <mxGeometry relative="1" as="geometry"/>
                </mxCell>
                <mxCell id="42" style="edgeStyle=orthogonalEdgeStyle;html=1;fontSize=14;fontColor=#000000;strokeWidth=2;" edge="1" parent="1" source="2" target="41">
                    <mxGeometry relative="1" as="geometry"/>
                </mxCell>
                <mxCell id="2" value="API Gateway" style="sketch=0;points=[[0,0,0],[0.25,0,0],[0.5,0,0],[0.75,0,0],[1,0,0],[0,1,0],[0.25,1,0],[0.5,1,0],[0.75,1,0],[1,1,0],[0,0.25,0],[0,0.5,0],[0,0.75,0],[1,0.25,0],[1,0.5,0],[1,0.75,0]];outlineConnect=0;fontColor=#232F3E;gradientColor=#945DF2;gradientDirection=north;fillColor=#5A30B5;strokeColor=#ffffff;dashed=0;verticalLabelPosition=bottom;verticalAlign=top;align=center;html=1;fontSize=14;fontStyle=0;aspect=fixed;shape=mxgraph.aws4.resourceIcon;resIcon=mxgraph.aws4.api_gateway;" vertex="1" parent="1">
                    <mxGeometry x="50" y="236" width="78" height="78" as="geometry"/>
                </mxCell>
                <mxCell id="4" value="" style="sketch=0;points=[[0,0,0],[0.25,0,0],[0.5,0,0],[0.75,0,0],[1,0,0],[0,1,0],[0.25,1,0],[0.5,1,0],[0.75,1,0],[1,1,0],[0,0.25,0],[0,0.5,0],[0,0.75,0],[1,0.25,0],[1,0.5,0],[1,0.75,0]];outlineConnect=0;fontColor=#232F3E;gradientColor=#F78E04;gradientDirection=north;fillColor=#D05C17;strokeColor=#ffffff;dashed=0;verticalLabelPosition=bottom;verticalAlign=top;align=center;html=1;fontSize=14;fontStyle=0;aspect=fixed;shape=mxgraph.aws4.resourceIcon;resIcon=mxgraph.aws4.fargate;" vertex="1" parent="1">
                    <mxGeometry x="360" y="40" width="30" height="30" as="geometry"/>
                </mxCell>
                <mxCell id="6" value="Backend Service" style="points=[[0,0],[0.25,0],[0.5,0],[0.75,0],[1,0],[1,0.25],[1,0.5],[1,0.75],[1,1],[0.75,1],[0.5,1],[0.25,1],[0,1],[0,0.75],[0,0.5],[0,0.25]];outlineConnect=0;gradientColor=none;html=1;whiteSpace=wrap;fontSize=14;fontStyle=0;container=1;pointerEvents=0;collapsible=0;recursiveResize=0;shape=mxgraph.aws4.group;grIcon=mxgraph.aws4.group_spot_fleet;strokeColor=#D86613;fillColor=none;verticalAlign=top;align=left;spacingLeft=30;fontColor=#D86613;dashed=0;" vertex="1" parent="1">
                    <mxGeometry x="400" y="80" width="160" height="110" as="geometry"/>
                </mxCell>
                <mxCell id="8" value="Task" style="sketch=0;outlineConnect=0;fontColor=#232F3E;gradientColor=none;fillColor=#D45B07;strokeColor=none;dashed=0;verticalLabelPosition=bottom;verticalAlign=top;align=center;html=1;fontSize=14;fontStyle=0;aspect=fixed;pointerEvents=1;shape=mxgraph.aws4.container_1;" vertex="1" parent="6">
                    <mxGeometry x="20" y="44.5" width="48" height="31" as="geometry"/>
                </mxCell>
                <mxCell id="9" value="Task" style="sketch=0;outlineConnect=0;fontColor=#232F3E;gradientColor=none;fillColor=#D45B07;strokeColor=none;dashed=0;verticalLabelPosition=bottom;verticalAlign=top;align=center;html=1;fontSize=14;fontStyle=0;aspect=fixed;pointerEvents=1;shape=mxgraph.aws4.container_1;" vertex="1" parent="6">
                    <mxGeometry x="90" y="44.5" width="48" height="31" as="geometry"/>
                </mxCell>
                <mxCell id="10" value="Users Service" style="points=[[0,0],[0.25,0],[0.5,0],[0.75,0],[1,0],[1,0.25],[1,0.5],[1,0.75],[1,1],[0.75,1],[0.5,1],[0.25,1],[0,1],[0,0.75],[0,0.5],[0,0.25]];outlineConnect=0;gradientColor=none;html=1;whiteSpace=wrap;fontSize=14;fontStyle=0;container=1;pointerEvents=0;collapsible=0;recursiveResize=0;shape=mxgraph.aws4.group;grIcon=mxgraph.aws4.group_spot_fleet;strokeColor=#D86613;fillColor=none;verticalAlign=top;align=left;spacingLeft=30;fontColor=#D86613;dashed=0;" vertex="1" parent="1">
                    <mxGeometry x="600" y="80" width="160" height="110" as="geometry"/>
                </mxCell>
                <mxCell id="11" value="Task" style="sketch=0;outlineConnect=0;fontColor=#232F3E;gradientColor=none;fillColor=#D45B07;strokeColor=none;dashed=0;verticalLabelPosition=bottom;verticalAlign=top;align=center;html=1;fontSize=14;fontStyle=0;aspect=fixed;pointerEvents=1;shape=mxgraph.aws4.container_1;" vertex="1" parent="10">
                    <mxGeometry x="20" y="44.5" width="48" height="31" as="geometry"/>
                </mxCell>
                <mxCell id="12" value="Task" style="sketch=0;outlineConnect=0;fontColor=#232F3E;gradientColor=none;fillColor=#D45B07;strokeColor=none;dashed=0;verticalLabelPosition=bottom;verticalAlign=top;align=center;html=1;fontSize=14;fontStyle=0;aspect=fixed;pointerEvents=1;shape=mxgraph.aws4.container_1;" vertex="1" parent="10">
                    <mxGeometry x="90" y="44.5" width="48" height="31" as="geometry"/>
                </mxCell>
                <mxCell id="13" value="Auth Service" style="points=[[0,0],[0.25,0],[0.5,0],[0.75,0],[1,0],[1,0.25],[1,0.5],[1,0.75],[1,1],[0.75,1],[0.5,1],[0.25,1],[0,1],[0,0.75],[0,0.5],[0,0.25]];outlineConnect=0;gradientColor=none;html=1;whiteSpace=wrap;fontSize=14;fontStyle=0;container=1;pointerEvents=0;collapsible=0;recursiveResize=0;shape=mxgraph.aws4.group;grIcon=mxgraph.aws4.group_spot_fleet;strokeColor=#D86613;fillColor=none;verticalAlign=top;align=left;spacingLeft=30;fontColor=#D86613;dashed=0;" vertex="1" parent="1">
                    <mxGeometry x="400" y="220" width="160" height="110" as="geometry"/>
                </mxCell>
                <mxCell id="14" value="Task" style="sketch=0;outlineConnect=0;fontColor=#232F3E;gradientColor=none;fillColor=#D45B07;strokeColor=none;dashed=0;verticalLabelPosition=bottom;verticalAlign=top;align=center;html=1;fontSize=14;fontStyle=0;aspect=fixed;pointerEvents=1;shape=mxgraph.aws4.container_1;" vertex="1" parent="13">
                    <mxGeometry x="20" y="44.5" width="48" height="31" as="geometry"/>
                </mxCell>
                <mxCell id="15" value="Task" style="sketch=0;outlineConnect=0;fontColor=#232F3E;gradientColor=none;fillColor=#D45B07;strokeColor=none;dashed=0;verticalLabelPosition=bottom;verticalAlign=top;align=center;html=1;fontSize=14;fontStyle=0;aspect=fixed;pointerEvents=1;shape=mxgraph.aws4.container_1;" vertex="1" parent="13">
                    <mxGeometry x="90" y="44.5" width="48" height="31" as="geometry"/>
                </mxCell>
                <mxCell id="27" style="edgeStyle=none;html=1;entryX=1;entryY=0.5;entryDx=0;entryDy=0;entryPerimeter=0;fontSize=14;fontColor=#D86613;fillColor=#1ba1e2;strokeColor=#006EAF;strokeWidth=2;" edge="1" parent="1" source="19" target="22">
                    <mxGeometry relative="1" as="geometry"/>
                </mxCell>
                <mxCell id="28" value="Registry" style="edgeLabel;html=1;align=center;verticalAlign=middle;resizable=0;points=[];fontSize=14;fontColor=#D86613;" vertex="1" connectable="0" parent="27">
                    <mxGeometry x="-0.3249" y="-2" relative="1" as="geometry">
                        <mxPoint x="-10" y="13" as="offset"/>
                    </mxGeometry>
                </mxCell>
                <mxCell id="19" value="Service Discovery" style="sketch=0;points=[[0,0,0],[0.25,0,0],[0.5,0,0],[0.75,0,0],[1,0,0],[0,1,0],[0.25,1,0],[0.5,1,0],[0.75,1,0],[1,1,0],[0,0.25,0],[0,0.5,0],[0,0.75,0],[1,0.25,0],[1,0.5,0],[1,0.75,0]];outlineConnect=0;fontColor=#232F3E;gradientColor=#F78E04;gradientDirection=north;fillColor=#D05C17;strokeColor=#ffffff;dashed=0;verticalLabelPosition=bottom;verticalAlign=top;align=center;html=1;fontSize=14;fontStyle=0;aspect=fixed;shape=mxgraph.aws4.resourceIcon;resIcon=mxgraph.aws4.ecs;" vertex="1" parent="1">
                    <mxGeometry x="682" y="440" width="78" height="78" as="geometry"/>
                </mxCell>
                <mxCell id="20" value="" style="html=1;shadow=0;dashed=0;align=center;verticalAlign=middle;shape=mxgraph.arrows2.twoWayArrow;dy=0.6;dx=35;rotation=90;fillColor=#dae8fc;strokeColor=#6c8ebf;fontSize=14;" vertex="1" parent="1">
                    <mxGeometry x="654" y="357" width="124" height="30" as="geometry"/>
                </mxCell>
                <mxCell id="25" style="edgeStyle=none;html=1;entryX=1;entryY=0.5;entryDx=0;entryDy=0;entryPerimeter=0;fontSize=14;fontColor=#D86613;fillColor=#1ba1e2;strokeColor=#006EAF;strokeWidth=2;" edge="1" parent="1" source="22" target="24">
                    <mxGeometry relative="1" as="geometry"/>
                </mxCell>
                <mxCell id="29" value="Update" style="edgeLabel;html=1;align=center;verticalAlign=middle;resizable=0;points=[];fontSize=14;fontColor=#D86613;" vertex="1" connectable="0" parent="25">
                    <mxGeometry x="-0.1029" y="1" relative="1" as="geometry">
                        <mxPoint x="-4" y="10" as="offset"/>
                    </mxGeometry>
                </mxCell>
                <mxCell id="22" value="Cloud Map" style="sketch=0;points=[[0,0,0],[0.25,0,0],[0.5,0,0],[0.75,0,0],[1,0,0],[0,1,0],[0.25,1,0],[0.5,1,0],[0.75,1,0],[1,1,0],[0,0.25,0],[0,0.5,0],[0,0.75,0],[1,0.25,0],[1,0.5,0],[1,0.75,0]];outlineConnect=0;fontColor=#232F3E;gradientColor=#945DF2;gradientDirection=north;fillColor=#5A30B5;strokeColor=#ffffff;dashed=0;verticalLabelPosition=bottom;verticalAlign=top;align=center;html=1;fontSize=14;fontStyle=0;aspect=fixed;shape=mxgraph.aws4.resourceIcon;resIcon=mxgraph.aws4.cloud_map;" vertex="1" parent="1">
                    <mxGeometry x="522" y="440" width="78" height="78" as="geometry"/>
                </mxCell>
                <mxCell id="24" value="Route53" style="sketch=0;points=[[0,0,0],[0.25,0,0],[0.5,0,0],[0.75,0,0],[1,0,0],[0,1,0],[0.25,1,0],[0.5,1,0],[0.75,1,0],[1,1,0],[0,0.25,0],[0,0.5,0],[0,0.75,0],[1,0.25,0],[1,0.5,0],[1,0.75,0]];outlineConnect=0;fontColor=#232F3E;gradientColor=#945DF2;gradientDirection=north;fillColor=#5A30B5;strokeColor=#ffffff;dashed=0;verticalLabelPosition=bottom;verticalAlign=top;align=center;html=1;fontSize=14;fontStyle=0;aspect=fixed;shape=mxgraph.aws4.resourceIcon;resIcon=mxgraph.aws4.route_53;" vertex="1" parent="1">
                    <mxGeometry x="360" y="440" width="78" height="78" as="geometry"/>
                </mxCell>
                <mxCell id="30" value="Authorizer / Permission" style="sketch=0;points=[[0,0,0],[0.25,0,0],[0.5,0,0],[0.75,0,0],[1,0,0],[0,1,0],[0.25,1,0],[0.5,1,0],[0.75,1,0],[1,1,0],[0,0.25,0],[0,0.5,0],[0,0.75,0],[1,0.25,0],[1,0.5,0],[1,0.75,0]];outlineConnect=0;fontColor=#232F3E;gradientColor=#F78E04;gradientDirection=north;fillColor=#D05C17;strokeColor=#ffffff;dashed=0;verticalLabelPosition=top;verticalAlign=bottom;align=center;html=1;fontSize=14;fontStyle=0;aspect=fixed;shape=mxgraph.aws4.resourceIcon;resIcon=mxgraph.aws4.lambda;labelPosition=center;" vertex="1" parent="1">
                    <mxGeometry x="50" y="80" width="78" height="78" as="geometry"/>
                </mxCell>
                <mxCell id="32" value="DynamoDB" style="sketch=0;points=[[0,0,0],[0.25,0,0],[0.5,0,0],[0.75,0,0],[1,0,0],[0,1,0],[0.25,1,0],[0.5,1,0],[0.75,1,0],[1,1,0],[0,0.25,0],[0,0.5,0],[0,0.75,0],[1,0.25,0],[1,0.5,0],[1,0.75,0]];outlineConnect=0;fontColor=#232F3E;gradientColor=#4D72F3;gradientDirection=north;fillColor=#3334B9;strokeColor=#ffffff;dashed=0;verticalLabelPosition=bottom;verticalAlign=top;align=center;html=1;fontSize=14;fontStyle=0;aspect=fixed;shape=mxgraph.aws4.resourceIcon;resIcon=mxgraph.aws4.dynamodb;" vertex="1" parent="1">
                    <mxGeometry x="980" y="161" width="78" height="78" as="geometry"/>
                </mxCell>
                <mxCell id="34" value="CloudWatch Logs" style="sketch=0;points=[[0,0,0],[0.25,0,0],[0.5,0,0],[0.75,0,0],[1,0,0],[0,1,0],[0.25,1,0],[0.5,1,0],[0.75,1,0],[1,1,0],[0,0.25,0],[0,0.5,0],[0,0.75,0],[1,0.25,0],[1,0.5,0],[1,0.75,0]];points=[[0,0,0],[0.25,0,0],[0.5,0,0],[0.75,0,0],[1,0,0],[0,1,0],[0.25,1,0],[0.5,1,0],[0.75,1,0],[1,1,0],[0,0.25,0],[0,0.5,0],[0,0.75,0],[1,0.25,0],[1,0.5,0],[1,0.75,0]];outlineConnect=0;fontColor=#232F3E;gradientColor=#F34482;gradientDirection=north;fillColor=#BC1356;strokeColor=#ffffff;dashed=0;verticalLabelPosition=bottom;verticalAlign=top;align=center;html=1;fontSize=14;fontStyle=0;aspect=fixed;shape=mxgraph.aws4.resourceIcon;resIcon=mxgraph.aws4.cloudwatch_2;" vertex="1" parent="1">
                    <mxGeometry x="980" y="40" width="78" height="78" as="geometry"/>
                </mxCell>
                <mxCell id="37" value="Materials" style="sketch=0;points=[[0,0,0],[0.25,0,0],[0.5,0,0],[0.75,0,0],[1,0,0],[0,1,0],[0.25,1,0],[0.5,1,0],[0.75,1,0],[1,1,0],[0,0.25,0],[0,0.5,0],[0,0.75,0],[1,0.25,0],[1,0.5,0],[1,0.75,0]];outlineConnect=0;fontColor=#232F3E;gradientColor=#60A337;gradientDirection=north;fillColor=#277116;strokeColor=#ffffff;dashed=0;verticalLabelPosition=top;verticalAlign=bottom;align=center;html=1;fontSize=14;fontStyle=0;aspect=fixed;shape=mxgraph.aws4.resourceIcon;resIcon=mxgraph.aws4.s3;labelPosition=center;" vertex="1" parent="1">
                    <mxGeometry x="438" y="-160" width="78" height="78" as="geometry"/>
                </mxCell>
                <mxCell id="39" value="VPC" style="points=[[0,0],[0.25,0],[0.5,0],[0.75,0],[1,0],[1,0.25],[1,0.5],[1,0.75],[1,1],[0.75,1],[0.5,1],[0.25,1],[0,1],[0,0.75],[0,0.5],[0,0.25]];outlineConnect=0;gradientColor=none;html=1;whiteSpace=wrap;fontSize=14;fontStyle=0;container=1;pointerEvents=0;collapsible=0;recursiveResize=0;shape=mxgraph.aws4.group;grIcon=mxgraph.aws4.group_vpc;strokeColor=#248814;fillColor=none;verticalAlign=top;align=left;spacingLeft=30;fontColor=#000000;dashed=0;" vertex="1" parent="1">
                    <mxGeometry x="280" width="570" height="570" as="geometry"/>
                </mxCell>
                <mxCell id="41" value="Private Link" style="sketch=0;outlineConnect=0;fontColor=#232F3E;gradientColor=none;fillColor=#4D27AA;strokeColor=none;dashed=0;verticalLabelPosition=bottom;verticalAlign=top;align=center;html=1;fontSize=14;fontStyle=0;aspect=fixed;pointerEvents=1;shape=mxgraph.aws4.elastic_network_interface;" vertex="1" parent="39">
                    <mxGeometry x="-30" y="247.75" width="54.5" height="54.5" as="geometry"/>
                </mxCell>
                <mxCell id="43" style="edgeStyle=orthogonalEdgeStyle;html=1;entryX=0;entryY=0.5;entryDx=0;entryDy=0;fontSize=14;fontColor=#000000;strokeWidth=2;" edge="1" parent="1" source="41" target="18">
                    <mxGeometry relative="1" as="geometry"/>
                </mxCell>
                <mxCell id="45" value="保護者" style="aspect=fixed;html=1;points=[];align=center;image;fontSize=14;image=img/lib/azure2/azure_stack/User_Subscriptions.svg;fontColor=#000000;" vertex="1" parent="1">
                    <mxGeometry x="-309.5" y="-4.590000000000003" width="48" height="46.59" as="geometry"/>
                </mxCell>
                <mxCell id="46" value="管理者" style="aspect=fixed;html=1;points=[];align=center;image;fontSize=14;image=img/lib/azure2/azure_stack/User_Subscriptions.svg;fontColor=#000000;" vertex="1" parent="1">
                    <mxGeometry x="-310" y="-104.59" width="48" height="46.59" as="geometry"/>
                </mxCell>
                <mxCell id="50" value="" style="group;fontSize=14;" vertex="1" connectable="0" parent="1">
                    <mxGeometry x="-174.51" y="244" width="310" height="116" as="geometry"/>
                </mxCell>
                <mxCell id="49" value="" style="rounded=1;whiteSpace=wrap;html=1;fontSize=14;fontColor=#000000;" vertex="1" parent="50">
                    <mxGeometry x="-45.49" y="46" width="110" height="70" as="geometry"/>
                </mxCell>
                <mxCell id="48" value="" style="shape=image;verticalLabelPosition=bottom;labelBackgroundColor=#ffffff;verticalAlign=top;aspect=fixed;imageAspect=0;image=data:image/png,iVBORw0KGgoAAAANSUhEUgAAARUAAAC2CAMAAADAz+kkAAABDlBMVEX6+vrvUTj////5+fn5+/oAAADtUTgcGhvwUDj/+PUZFxhoZmfj4+P29vbQ0ND/9vPlVDz+rJ/KUj89OjtaWlr/y7z+s6fcYEyrq6tvbm5JR0gdGhwhHyDcVEDZWkX/8uu+vL3OgHOgnp8NCgwrKSru7O0UERPV1dUzMTLExMRQTk+OjY3a2tr/7+p+fH3lVT6TkpL/5t6xsbH/08jog3T8xL2AgIDwrqP/3NRoaGjemY3Ti33rlYfTbl/aZlTsnZDNZFTlemj0urDMTDf0bVjma1jNdGe6UT7/t6z2iHPxbVj7loPic2Psp5viX0nLXk2/bF+8g3zyzcjHopzqtaveyMTzeWbjhXjyYUvajIINgKT4AAAQEklEQVR4nO1caWPayJYlJSQhIUABEoOQgJag2HcMOA+c2Ewy6Y4dz/N4ntP//4/MLS2gDUeATafddT7YUAhV1dG5S23EYhQUFBQUFBQUFBQUFBQUFBQUFBQUFBQUFBQUFBQUFBQUFBQUFBQUFBQUFBQUFBQUFBR/N8Tjf3ULfkVQUg4Hw/zVLfgV8dpJeaan/trckcnK0Z16ZaRYeG2P+rlxgEG9dtcrADLCT5Gxr7G/9QpZIbbj2A/0txIZhJpXyQhBPM4QVhiigNH57Yd//RYN//pwe94jgnmdtJi8gE4yk+Xq8qxc1qKhXD67XH1cZGw7enXuGjoUFzKjD580LpFIvCGw/23+O+CcF2Y5J5dX815GsG/yqgDWA0IZrcoDjnsTDc51nKyVpyOgJR5/ZayQ7oD1fNIiMmKywTmK4ThttcgQal8XK9AjQehdah6dWJbj1s4uGYFcpqNNjH6ymhPzdmQUiAuV33xKsf3JlordxgVqWfaisPJX4GBmwCMI77Oyu5+OeUQDN8i+M23odXlcobeS3VJwWPHSwu2UC6dd9SKw8vfK94TM9Vmww34OuEFoiCJlHLeeRPIspwGQj1AsheDPERAqf5ZDrMXPyn/9/lmTw69KaLeZX4eVWL3bSLcK6XRDSh1+E2H0JUJU5rS376dauBUltC+VTISajnx80ZBq6HmVJWgWx4fXJ0xWgwisDD5PJsuzoFoIK4P/tljZ7TkQStWlbqMh1VMvSg2qj9usWMIAUTRyR7ByfmmxknDyfS7Ms3Lyh95ofiaHqAVYGWWe5KSeruqdYjKZ73f0cVWKPQMxyK88xqxIb2JezBX7xX5SYfUjWPl6KTus2KT8+BHSeflukunNL8N0NchOwi2IMdtabw1B1AZ5ftgw2Fy/kD64tQ5SjXEh7fIb1iOp6zURK8NqV5KkbnUoHX5/4f3WLjgrpvz4/Y9gxDGztcpDeUPY9gLZzFhCYLa10VGAEIM1mmDvBi7xuJRsHamWVCvPi/mWS57kZaqaE0VlbBkpQsekAi5WgA+Zg8GN/J/lZy3Ainy2EITKPCsHIpbFSngjUtUkL+JmESynVa1W9X6OxaKSPpIVKWmoqlHsegqRlMR8s3BE5NnCrRX5jz9kEAmnfbu+0QJWpM0zCFVu1wEZ7dQKkDIGodT6rS5JIAB1KV1IGv0j24waaklV+ZxXckxV5MVO/ch7W/Bq5fcpsMHJ37++u9E4rygSg1UPdNmbBvIWk5XQzJZJK6CMQj2+bT5KdauNI6WCuk0+yIrUx7xSRU4afVQu7fUrn2+X38GnyKvJ5MqnloScXQgICYtPAy7AihDOSiqPcbuVQt75l+OT//qMFXl25tEFoQr3Jfv+R1bhZgXSkqt3EGdgIDwdjaZrOeEeDcnrt2BCSDgv+4xrt7ctGHxTP6594TeWhoriizFMi1XFYDA+LHf0sgKRZkF8iqx9rIyWa3f3E9xg2iO+ofdNi8hKShHFi+cx9MCt63XfjVMFVm0G0tmu3j8k4HlYIXOxt6PFI9CS/Sr03noCDsedmawIi7tBIhIrXRakcoI030S9iPm2jwGmWlNNV7MvvKyQAHwNKilrA/AilfOsO3FJrE1WUGXuHRHtZGVolNrHetYn4fYeLlY2xaAf8TlYAddyOakI8zttcFcxJ3RJ/4l7ScAwcGLF19Gl7A5QO1mZYfHipUgJeFQpx5f8WgFW+GdhhcwiQbo2WZXLK0EQFlPwrZzJSiKhnQsmK723WhRWmFwJvxgrAUi5klg0HfCWrWdkhdMeR4LQ+3CZXVYE1PuYdXzuhhXwLO7v7NSK8tKsuNUCWsHAiifsPx8rkJisl0CL8H71aZ4RwItc2pnLhhU0Wg6iWJDCi8lTaQWBVoCVl7Ig4nHX12QNefHb/1xDhpK5/1J2WIlZrGSu3WPnnazkRbHd3dmmFEFYthWMuhaY7fUMXFK3RzyMdadujhcvGnUvdANYYVIOjmGFpLGEDqE3//e9mc4uL818dr1ANu6/cxFY6Rh8rrCLFdQoFArjkO4zerE4CylH6UJBt8sluGbY3Xygw62GTRgDXBS9SELZrGBDb0XOeMNYIWnLvZnH3v8vyfJR72EFwZgr9xxWFjdyhJkEkm0Wdz0gVG2ybC4oJZRuG5gNmYJBSZZl7bt1k6yRd0beqENmJA0yNMKGFxjKDNYBtCUiL6GsvHkzuHxH6BB6/2dlbpPlmTa42rAycue3u3PbEl/KjXfV3C1iNaT3SK+pKu4HyewqInbcVDeJxS0rQ74GUFW1pviQI4UO1FlkE9rBCmRz96ZrFTI2D/MVxCSHld5tJFY6hgqN31EzMxRVYxgwldQM8yrftMu3zxYVmjw7DmUlrQOGTV7MF6pedEp8s687aB3JCkSYwWoiIBcq9x+2BWRS7uesxKQ2Vkt5GDSHfYjGpB/+aUTUamOlprKtwOV9VTUcDiU3K1YIqFsxyIMYiUEt1/tjWDGTNhg/L7x19LYsCffZn7PCwDikKaq4XZDC2oPSeVEVu/5SvcYW8iXsn5lCUl7EecYWj5QUXaxYRVa+4sFzRmZTKglIcqcTtAORWDGb1cSq2OxXw+SS6oBjGftULfWxKs1UvuYrR4Vcid34KK9WrCJTK/7qn4cVz4qzNr0/kpVYatw21JKodAJmFI+DLODxeh0Laik4LxEX4hvSoA5EmE2nT8yKRzBAy7kQykrmwTXJ8BQrsVQLxrKqiJXZuL5tHmMx0BbBrXobrZdYPdVVgC5vOdgMvki53p3EgoJrY4kEB77loRLGSm8eyduaBHR1hYWognNF3edf6p7YbDIl9Q3ciqF8SeU9l6IxGFB1E5FOpZUf/7FnqT02xGmX816IXEYfo0Rmp23pTo3wItbyQwa5oi0a1lTDk0Sgag4rDYQ6EIWq7hUdNFR5ftvnE2mF+/7tozYw1z3eeGiRL29HIaxM92CF7BMAvUCQxrWkew4RnAjP59yOJaVjo1OH8JTzmVC9KLpd0Km0Mrh59+4xu91duuFFLi8XAbUsrvZihYz4WnngBeLRzOV26xdgQu7YDPkursJ/1OZ5jLY7hVBVEdnqVlWn8iuythyNzq/WlmDcYtHu/h1QS+92HdWvOGBSMHgBd6Hmt2MfCCyqoTPOijQZG+E8mdM0P4AotGFFr5WwyyudRCuEBvnstpLpTZZ3WXAwCQecvP70YRQLRObFdEteNFYIMa2cAXJRNkEXfCikt1sJpHTDGgOgRq0k9reswDDAkwafRCscicNACznQMfr67Wy9tjemr9c370eZ0IRluyoUmRXo7Yy1abFzVEhv2a1TBQMSrU4g8DjNDSskDfbkeyfLV0AWoBYBkSMLvcl8Pr+dz68X5omXsNg8WmoHsAKmALTgpOM3UZ+HYGO9ZsD7YrFt9RV1eFXd9AcVajzvnnQ4WcYPXlYuE1psMRDEw/hwxHIpH8BKHBUMSOedVSKkN1V84XxYHxrOIBq1VFXtO/2Bwbd44e7xC2sl7ll9l8sfR+HJbIhYHg9hBQADHUcscdQAS6nZJoQabVF1IjdqQtDeTBX4DOiltRL3rqhCJFpkovGSmTuOJbq3tZoPgchuajyGimBC9koaGBAuOnaCZpiv2R1C46ZY8yy3nciv2AEFaLm5DktmQ/Dw3f7SXlphYinI87cmRNLbofUGDAgPHUWgtLE1IR37Onyq3HZ7vCX7cbKbF6EyGi0WI3LB+Wf5AFaszQN4RppKdgxDFmtaCvjaRk7MVZGzp4OYkGJyhBpJbHhnHE6hlYTtbd+YA2V5cHa76O0gZfGwvLq8mc4XGTS52o+VzSkiCVjZZO+IxGarxy3W1S0GzQze2mMAgyOx6aPgaa1s0pzjWXlj/yWZ29XtZFTxC0boLa6nWUh+B1r2y3llcmVv7xnsy0qNxxebZYuZqlrTsWBAvGuzC2qwtgkxBby93mHlSa0cz8pX125RbhOMBp+XD/ee/E0Y3c+vNFkmUw7w+er6nckK5L87d5buOPBQh6e6ibOo1bQGgkhSsKcHqGnnvVIfG7p3au6l/Upm8sk765SwUzqtvFrOH84nkwU4ksnk4WF5UzZpsIjTpt8sv5IwdyGHn/cILyXt3z77FInNpOEtA/fd42dEFtmgSzCyFpu+mbmX9isZ/45107+Qw3MyQPt8c/W4fJxefQaVkJHPdgJu8MPe22LuWN/nbJAkutd7UBEGghB26x2j5t0C1GXVWgfF0VjESd+k94vnK0+cbiCuF5wIwDuQts3MLiKnG4TQHZQ7FurS4G0723HzGAaCEJvBgPzbT2DomGQIXWBA3goiagXC3YGsZD6UA/vTOU/fLWxLPNYGb3edhNnBSmpoqG5VpJp8qY1iaRxYMOwYJRgWNfLYb0BRtUL2oOUOOfohCJO7TUc9M07+08w7wHHZxV6npuoK74wBTaAkX6rVU0M2sIeuy5agrFULGFBUrZAkoHbIzjxGqDxuRr8eHgKkhB8PAr9bMe8U6dwhQxJVVZ25p2R1vqRWU4o13+QG2YPZh+GkOTHl7W1ErUgqrx62XxHEMtghC47b/c7hTrbicpi1IBQsR2lwI96N/HXMq7MuKwY2soOtifnWzMgFXENkrSglHH3N3Q2hcrsOO/cTWA0JPXkor2/Jyd3Q3TlF/z4MSOvTiliqDT2lSOFLyphtFgIkSuAsO3njIrCfI6pW6kH2IkIAG1r7TnLsOJHq085mt1i4Ugqs0pE8S94IDcnCc9J7OSLulywZBm5Rb4s1pWYEbSCqVsjWZNuEmKh7VxxkRo/rwc+NJWhRoJTHUWZHdSgPlpErtlKb9LiuK2qp5F9ENX2iqvL94CMl4UrlgzuuI2sl1oUxZrPAWPXvkVSBkxQyvbfZQWDR4ymYSS43yH4cZXb9BAtKspgH1Nr9YaE1HvYVlQdO2GGgj5Dbq1YE9QdzwleYCUTVSqyus2SZezYcDpPKHpvnzdAhZCY3ZW0wkPeApmWvzsGn7DzCgbp5jEWeF82jZPCyxIts2PZBVDRUsgsjiHoeq0YnWN5NYhxgRQxhBUlJo6Sa5zNxaa8jBdAt8uNF53+u7s7KUXF29+VP8ms9zBOyJDaTJzuzQCMlnmzGKqbDttaQ4XGtE+YTU7qhhqVh0oWq+llRVDXISgzVhyqYLamf3ZeVmOl0R5Ovb6Pi68S2naeNFSEmXSDnU5PJmU52HYU2AKXT6fAmp9LpRtgnpp8IFgXuHDNPrpL6i3p3j4NJTvLFbH/cKxLMn7si1TxdF+NeN9l5lf1ZyJ2e+lZodeF3f7r6II7+KYwnWWF2vP75Xff9wsvhJZrxDPc8/han5NeW2XFVMiGvfhns3STm5z7lJas/8DsvW0Pc/saLtuwXEA8xh589+lf1I0WRQDr804fzj2OF4lj8Agb/C+Lv9YNexyG6L/0nuZc9WPkn0UJBQUFBQUFBQUFBQUFBQUFBQUFBQUFBQUFBQUFBQUFBQUFBQUFBQUFBQUFBQUFBQfHi+H+ZSOFmrWmdzQAAAABJRU5ErkJggg==;fontSize=14;" vertex="1" parent="50">
                    <mxGeometry x="-28.65" y="56" width="76.09" height="50" as="geometry"/>
                </mxCell>
                <mxCell id="44" value="学生" style="verticalLabelPosition=top;html=1;verticalAlign=bottom;align=center;strokeColor=none;fillColor=#00BEF2;shape=mxgraph.azure.user;fontSize=14;fontColor=#000000;labelPosition=center;" vertex="1" parent="1">
                    <mxGeometry x="-309.5" y="296" width="47.5" height="50" as="geometry"/>
                </mxCell>
                <mxCell id="53" value="Tablet" style="text;html=1;align=center;verticalAlign=middle;resizable=0;points=[];autosize=1;strokeColor=none;fillColor=none;fontSize=14;fontColor=#000000;" vertex="1" parent="1">
                    <mxGeometry x="-190.49" y="366" width="50" height="20" as="geometry"/>
                </mxCell>
                <mxCell id="54" style="edgeStyle=orthogonalEdgeStyle;html=1;fontSize=14;fontColor=#000000;strokeColor=#000000;strokeWidth=2;" edge="1" parent="1" source="49" target="2">
                    <mxGeometry relative="1" as="geometry">
                        <Array as="points">
                            <mxPoint x="-40" y="325"/>
                            <mxPoint x="-40" y="275"/>
                        </Array>
                    </mxGeometry>
                </mxCell>
                <mxCell id="58" style="edgeStyle=orthogonalEdgeStyle;html=1;entryX=0;entryY=0.5;entryDx=0;entryDy=0;entryPerimeter=0;fontSize=14;fontColor=#000000;strokeColor=#000000;strokeWidth=2;" edge="1" parent="1" source="56" target="57">
                    <mxGeometry relative="1" as="geometry"/>
                </mxCell>
                <mxCell id="56" value="CloudFront" style="sketch=0;points=[[0,0,0],[0.25,0,0],[0.5,0,0],[0.75,0,0],[1,0,0],[0,1,0],[0.25,1,0],[0.5,1,0],[0.75,1,0],[1,1,0],[0,0.25,0],[0,0.5,0],[0,0.75,0],[1,0.25,0],[1,0.5,0],[1,0.75,0]];outlineConnect=0;fontColor=#232F3E;gradientColor=#945DF2;gradientDirection=north;fillColor=#5A30B5;strokeColor=#ffffff;dashed=0;verticalLabelPosition=bottom;verticalAlign=top;align=center;html=1;fontSize=14;fontStyle=0;aspect=fixed;shape=mxgraph.aws4.resourceIcon;resIcon=mxgraph.aws4.cloudfront;" vertex="1" parent="1">
                    <mxGeometry x="50" y="-160" width="78" height="78" as="geometry"/>
                </mxCell>
                <mxCell id="57" value="Frontend" style="sketch=0;points=[[0,0,0],[0.25,0,0],[0.5,0,0],[0.75,0,0],[1,0,0],[0,1,0],[0.25,1,0],[0.5,1,0],[0.75,1,0],[1,1,0],[0,0.25,0],[0,0.5,0],[0,0.75,0],[1,0.25,0],[1,0.5,0],[1,0.75,0]];outlineConnect=0;fontColor=#232F3E;gradientColor=#60A337;gradientDirection=north;fillColor=#277116;strokeColor=#ffffff;dashed=0;verticalLabelPosition=bottom;verticalAlign=top;align=center;html=1;fontSize=14;fontStyle=0;aspect=fixed;shape=mxgraph.aws4.resourceIcon;resIcon=mxgraph.aws4.s3;labelPosition=center;" vertex="1" parent="1">
                    <mxGeometry x="282" y="-160" width="78" height="78" as="geometry"/>
                </mxCell>
                <mxCell id="63" style="edgeStyle=orthogonalEdgeStyle;html=1;entryX=0;entryY=0.5;entryDx=0;entryDy=0;entryPerimeter=0;fontSize=14;fontColor=#000000;strokeColor=#000000;strokeWidth=2;" edge="1" parent="1" source="62" target="56">
                    <mxGeometry relative="1" as="geometry"/>
                </mxCell>
                <mxCell id="64" style="edgeStyle=orthogonalEdgeStyle;html=1;entryX=0;entryY=0.5;entryDx=0;entryDy=0;entryPerimeter=0;fontSize=14;fontColor=#000000;strokeColor=#000000;strokeWidth=2;" edge="1" parent="1" source="62" target="2">
                    <mxGeometry relative="1" as="geometry"/>
                </mxCell>
                <mxCell id="62" value="" style="shape=image;verticalLabelPosition=bottom;labelBackgroundColor=#ffffff;verticalAlign=top;aspect=fixed;imageAspect=0;image=data:image/jpeg,/9j/4AAQSkZJRgABAQAAAQABAAD/2wCEAAkGBxAQEBAREBAPEBUXDxAVFxUVEA8VFhUWFREWFxUVFRUYHSggGBolGxUXITEhJSkrLi4uFyAzODMsNygtLisBCgoKDg0OGhAQGy0lICUtLS0rLS4tLS0tLS0tLS0vLy0tLS0tLS0tKy8tLS0tLS0tLS0tLS0tLS0tLS0tLS0tLf/AABEIAOEA4QMBIgACEQEDEQH/xAAcAAEAAQUBAQAAAAAAAAAAAAAABQECBAYHAwj/xABCEAACAQICBgUHCgUEAwAAAAAAAQIDEQQFBhIhMUFRYXGBkbETIjJCUqHBBxQjU2JykpPR4hUWM8LhQ4Kj8KKyw//EABsBAQACAwEBAAAAAAAAAAAAAAAFBgEDBAIH/8QANREAAgECAgYJBAICAwEAAAAAAAECAxEEMQUSIUFRYRNxgZGhsdHh8BQiMsFCUjPxIySSBv/aAAwDAQACEQMRAD8A7iAAAAAAAAADxr14U4uU5RhFb22kl2moZxpzGLccPHWftS3dkeJ4nUjDM30MPUrO0F6d5uNSrGKvJqK5tpIgMx0wwlK6UnVfKO78T+BzrMM0r15OVWpKXRfYupbkYJyzxTf4omKOh4LbUlfkvX/RuWM09qvZSpwgubTk/wBPcQ9bSvGy/wBaS6rLwIYoaHVm82SMMHQhlBd1/MzK2bYiXpVqj65zZjvEze+cn2nmDxdm9Rity7j3jjaq3VJrqkzKoaQYuHo16vbOT8SNKDWfEOnCWcV3I2XC6bYuHpShU+9H9LP3k5gNP6bsq1Jw6YvZ3P8AU56DZGtUW85qmj8PPONurZ7HacBnGHxC+iqwl0XtL8L2kgcIhNp3TafQzYsn0yxFC0Zvy0NmyTd0uiR0QxS/kiMr6GkttKV+Tz7zqoIbJdIqGKSUJas+MJNKXZzJk6k01dENOEoS1ZqzAAMnkAAAAAAAAAAAAAAAEHpBpFRwis/PqcIJ7umXJEXpXpZGhelQalU2qUuEP1l4HPKlRyblJttu7b3s5q1fV2RzJbBaNdRKdXYty4kjmuc18VK9Sba4RWyK6kRwQOFtt3ZYIxUVaKsigAB6LSpQqYBQAAyC0uLQZRQAAAoVKAF0JuLTTaa3NOzNz0c01lFqnim5x3KdlrR6+a95pQPUJyg7xNVfD068dWa9V1M7pQrRqRU4SUotXTTumexyDRvSOphJ+3TbWtH4x5M6nl2Pp4inGpSkpRfenxTXBkjSqqa5lXxmCnhnxjufrz8zMABtOIAAAAAAAAAGm6Z6UKinQoS+ka86Sf8ATXL73gSOl+fLCUfNs6s7qC5bNs30LxsclnUcm5Sbbbu297fM5q9bV+1Zkro7BKo+lnluXH55l7lfa9oTLEyqZwlhR6plxYmXJg9AAAFpUoDAAABkFpcWgyigAABQqUAAABkoS+jme1MHV1leUHslC+xrmukiAE2ndHmcIzi4yV0zuOCxlOvTjUpyUoyWx/B8mZRyjQzP3hqupN/RTe37L4S/U6qpXV1tJOlUVSN9+8qONwjw1TV3PJ/N63lwANpyAAAA8cRXjThKc3qxjFyb5JK7PY0T5R82aUMNB71rVNvD1Y9u19iMN2RpxFZUqbm/j3GmaRZlLE151pXtJ2ivZS2KPx7WRyZ6VIayt2rola1zHi+D2MjqsLO5OaA0j9Vh9Sf5w2Pddbn+nzPZMuTPNMuTNRYEeqLkzyTL0wZPQtCYBkqUBk4LL61d2o0qk+mMXqrrk9i7wk3sRiUlFXk7LuMYGy4bQjEy9OVGl1ylJ+5fEzF8n8uOKiuqg3/9EbegqcDkekcMv5+b8kaaUNxnoBV9XEwfXSkv7mYOI0NxMNutrL7NPW92tc8TpyirtPub8jMdI4Z5S8GvNI1sEo8ll9Z/xfuLv4HL61flfuOX6ml/bwfobvqafEiShL/wKX1q/K/cP4DL65flfuH1NL+3g/QfU0+JEAmf5el9avyv3D+XpfXL8r95j6qj/bwfoZ+pp8SFBNfy3L69flfvLv5bl9evyf3mPqqP9vB+g+pp8SCOlfJ9nflabw8359Neb0w5dnhY1RaMS+vX5P7zJyzJauHrU6sMRZxkn/R3rjF+fua2Hunj6NOV9bwfoc2M6LEUnC+3NdfvkdUB50pqUVJbmkz0J1NNXRVAADIPOtVUIylLYoxbfUldnFMzxsq9apVlvlNvqXqrsVkdH0/x/ksG4p2dSSj/ALb3l7lbtOXGuo9xCaUq3mqfDb3/ADxB4YqF/O7H0va9Y9yjV9j5WNMo6ysc+jsbLB4iNVZZNcU8+3euaManM9UzGnFptPp/wz0hI42j6nSqRnFSi7p7U+TPZMvTPJM9EzBvL0z1oUpTlGEItyk7KKV22WYejKpKMIRcpSaSS3ts6jo3kEMJC7tKrJedP+2PKPibKVJ1GcmMxkcPHi3kv2+XmRWRaGQilPFWqS2Pyab1I/efrP3dZtlKnGKUYpRS3JJJLsRj5lmVLDw16srclvcnySNIzXSmvWuoPyMOUfSfXL9LE3hMBOovsVlxfzaVLF49yleq7vhw/SN6xWPo0v6lWEOhyV+7eYEtJsGv9ZPqjN/A5s+YJaOiaa/KTfcvUjXjp7kvM6dRz/CT3V4drcfEkITUleLTXNNNd5yAycDmFWg70pyh0Lc+tbmeKmiVb7Jd/t6M9Rxz/ku46bjcupVl58dvtLY128e01rMcrnRd350eEl4NcDIyPSyFVqFfVpz3KSvqSfT7L9xs0oppppNNbuDK7j9GXdqitLc+PqvHmiVw2Msrxd1w+ZM0VIuSJXMcqVOWtG+o3+F8uoxo0UuBVK9OVGbhNbV8uTNOanHWRixiekaTMqxWxz6xsPBUi9QR6WK2PNzB52Fj0sLGATWj+IvGVN8Nq6nv9/iTJq2W1dSrF8L2fUzaS1aJrdJh9V5x2dm707CJxcNWpfj8YABJnKc1+UzF62IpUluhDWf3pv8ASK7zTyZ0wr6+OxD5TUfwwSIU0SzKtip69ab5+WwqADBoPLEQuuleCTMZMzjFrQs78N66LvcaKsd5c/8A5nSGtF4Sb2rbHq3rszXJ2yRfCR6JmMjPyjCuvWpUVvnUjHqV/OfYrvsOexcdZRTbN6+T/JlGHzqa86Sap3W6N7OXW7d3WbPmuYQw9KVSfDYlxk3uSPejSjCMYRVoxSSXJJWRoGl+ZOtXcE/Mp3ilzl6z+HYT2AwiqSUNy2v5zKVj8W5N1Hm8uXskReY46pXqOpUd29y4RXJdBjAFqjFRVkQLbbuwUAMmAADILTcNEM/accPWldPZCTe5+w+jl3Gni5pr0I1oakv9cz3SqOnLWR2CrTUk4yV00a5WouEnF8H3rgyS0bzL5zh4zfpJ6s/vJLb2ppl2cUdkZrg9V9T3e/xKBpnCN022vuh5b/VcizYKurq2TImwsX2FiqEsW2Fi+wsAW2K2LrFbAxcssbXh560Iy5pGr2J/KJXpLov+vxJjQs7VZQ4ryfuzjxivBPn5mcACykacOzSprVqsnxqzfe2zFK1JXbfNt97LTnKhJ3bZUFADyVLZx1lbjvX3uRcUMNXVmbaNadGpGrT/ACTuvng+WwxDbvk2wynipTfqUpNdcmo+FzVsRCzvz8Xdm7/JWtuLfKNFd7q/oaKcbVEmfS5YuGJwDr08msuDuk11r3yZvGYYjyVKpU9mEn2pbPecnvz2nStKpWwdbqS75I5qW3RMf+OUuL8l7lNxz+5LkCgBKnEAAZALSpQGAAADatAcTarUpcJQUl1xdvBm542GtTmvst9q2rwOeaGytjaXSqq/4pP4HSJbn1Fc0tSXTNf2jt8V5JEvgZvo+p+jNdRWxSG5dRU+ZLIs4sVAMAAAAEvkb82S6V71/giCWyPdP/b8SR0U/wDtR6n5M58V/ifZ5ksAC3EUcIxMbTmuTku6TR5EjpDR1MZiIcq0u6TuvcyOOYqE1qya4N+YAAPIAAAaumn/ANb2XNt+S6Vq2Jg97pwf4Z6v95qZM6HYxUcZRbdlP6H8d9WX4rRPNvuUuBO6GxzpqeGl+M8uUltX/q1uu3NnRtI6Wvha6X1bfdt+By86/KKaae1NNPqe85TmWDdCrOk/Vk0ulcH3WLLomorSh2/r07z3jo/jLsMYAEwcAKFADAAAAKAAGwaD0dbFqXs05vvWr/cdBqStGT5Jv3GsaB4FxpTrNW15Wj92PHvv3E/mM7U307O/eVfS2ISqTluivLb5k1gqf2JcX5v0IiO5FQD5siyAAAAAAAl8i3T64/EiCayVfRyfOb91v8klomN8UuSflb9nNiv8T7CSABbCLOTfKBhvJ42b4TjGS/Dqv3xZrh0D5T8FeFCsl6MpQb6JWcfen3nPzTJbSsY6GpXkuO3v2+dwADycgAAAEZWaa3pgAzzOwZBmSxOHp1PWtaa5NbH+vaROmmTupHy9NXlBWkktso8+teBqWiWe/NKtpt+SnZSXJ8JLqOpQkpJNNNNXTW1NM68PXlTkpxzRY8PWjiqNpZ7+vc185bjjwNv0l0XacquHjdO7lTW9cbwXFdHcagy1UK8K0daH+uv5tOCpTlTdpAAG41goAADNyfLZ4mqqcdi3ylb0Y8WUyvLKuJnq0o33Xk/Rj0t/A6PkuU08LT1IbW9spPfJ/BdBw43GRoRsvy3Lhzf6W98s+nD4d1Xd5GZh6MacYwgrRikkuhEbmNbWlZbl48TIzDHKDVOL89x1n9mF7az63sXbyI0+f6ZxVo9Cs3tfVf8AbLJg6d3rcAACuEiAAAAAADYctp6tKC6PF3NehByait7t7zaoxsrLkTmhKV5TqcEl37X5I4cbLYolwALEcBF6RZf85w1alxcLx+9FqUfekcWXcd9ORac5T82xbcVaFW848k/Wiupu/wDuRrqLeRGlaN0qq3bH+vnM18AGshAAAAAAChs+iulMsNalVvKlfrlDq5roNZLTKdjZSqzpS1oOzO34XEwqxU6clOLWxr/uwj810fw+Iu5xcZe3CyfbwfacuyvN62GlrUpuPOO+L60btlmnlKSSrwlTftR86L7N695vp1pQlrRdmTlLSFGtHVqbOvLvMbF6FVV/SqQmuUrxfxRHy0Vxq/0U+qrS+MjecLnOGqehWpvoctV9zszN14813okYaUrpbbPs9GvI3fSUZ7Yvufszn1HRDFy9JU4dc0//AFuTOA0Kpxs61SVT7MfNj2ve/cbJWxVKCvOpCC5ynGPiyGx+mGCpX+k8q+UU373sPFTSVeWy9urZ45h0MPT2yfe/17E3h6EKcVCEVGK3JKyNf0p0tpYNOELVa3CCu1Hk528N5qGe6d1614UV5CDurqXnNfe4dneYmhmWOtXdeorwpu+3brVOHdv7iKr4iNOLnLd872eViXWmqNDN7+HO3qbhlGGqQpuVaTlWqPWqt+1bZBclFbLdZnAFMq1JVJucs2WenTjTioRyQABrNgAAAALQ3YEhk1HWnrcIrx3fEnjDyyhqU1fe9r+C7jMLjo+g6NCMXm9r7fRWXYRFeprzbAAO00ggdL8n+d4aUYr6SF5Q6XbbHtWzuJ4Bq54nBTi4yyZwHr2A2/5QcgdKo8VTX0dSS10vVm1v6pW7+tGnmhqzsVWtSlSm4S3ePP51FQAYNQAAAAKAFQWgC5UqpPmy0oweWkJSMaTPWozHkwbYKxdRpSqTjCCvKUlFLpbsjqmWYCOHowox9VbX7UntlLvNZ0Eyv0sVNc1T/vl8F2m4kBpXE60uijks+v2LfoXB9HT6aWcsur3z7gACIJ0AAAAAAoZeW4byk9voxtfp5IxYxbaSV23ZLpNjwOGVKCjve9vm+JJaLwnTVdZ/jHxe5ftnNiaupGyzZkgAthFgAAAAAHhicPCrCVOpFSjKNmnxTOPaS5FUwVXVleUHd0529Jcn0rj3naDAzfLKWKpSpVVdPc+MWt0ovg0eZK6OPGYVV4c1l6dRw4Enn2S1sFU1KqunfUmvRml4PddeJGGkrU4ShJxkrNAAA8gAoAVBQAAtkyrZ5yYMosqM9srwMsRWhSjdaz2v2UtspPs97RizZv2heVeSo+WmvPqpNfZp+qu3f3HNi8QqFJy37uv2JPR2E+prKG5bX1e+RP0KMacIwgrRjFRS5JKyPQAqbbbuy9pJKyAAMGQAAChRsNkvlmXtNVKi2+rHl0vpOjC4WeJnqQ7Xw+blv72a6tVU1dnplWB1FrzXnNbvZX6kmAXGjRjRgoQyRETm5y1mAAbTyAAAAAAAAAYeY4CniKcqVaKlFrtT4OL4Nczlmk2ilbBtzjerR9tLbHoml47uo6+WtJrbtR5lFM5cThIV192x7n8zXI4ADpWkOgdOpeeF1aMvYavCXV7Hh0HPcfgauHm4VqcqculbH0xe6S6UammivYjCVKD+5bOKy9u0xwChg5yoKFGwCkmeUmXSZ5SfaD0iU0ayv51XUZLzIrWn1J7F37Oq50wi9HMs+bUIxfpy2zfS90exbO8lCsaQxPTVdmSy9fm6xfNF4P6air/k9r/S7F43AAOAkgAWt2AKhRbajFOTe5LeZWEwFSpts4R5tb+qPxJrC4SFJeatvFva31sk8JoupW+6f2x8X1L1OariYw2LazEy/LNRqc7OXBcI/q+klACzUaMKMdSCsvniRs5ym7yAANp5AAAAAAAAAAAAAAABjYzB0q0HCrTjUi+EkmZIANBzf5O4S87CVfJ/YnrSXUp+ku25qWZ6N4zD316M2vajaUe9bV2pHaweHBMj6ujaE9q2dXp6WPntTT3NMtkzu+NyrD1/61GnU6XBX795B4r5P8BP0Y1aT5wqz8JXXuPPRs4ZaJqL8ZJ+HqcgkzYNCsr8rWdaavCk1bpnvj3b+42qt8l9FvzMTVivtU4SferE7lmjEaFKFKFXZFb9RXk27uT28WcuLhWdJxpLa9maVlvzOrR+AcKynXyW3jd7vXsMYEn/AAR/W/8Ah/k9IZLDjOpLtil7kQUdE4p7ku1fq5aXi6XHwIYQes7RTk+UU34GwU8rox9RP7zcvEy4xSVkklyR1U9CSf5z7lfzt5GmWMX8UQNDKqst+rTXTtfctnvJLC5ZTp7ba8ub+C3IzwStDR9Cjtirvi9r9jmqV5zzYAB2mkAAAAAAAAAAAAAAAAAAAAAAAAAAAAAAAAAAAyAADAAAAAAAAAAAAAAAAAAAP//Z;fontSize=14;" vertex="1" parent="1">
                    <mxGeometry x="-203.99" y="-66.60000000000001" width="77.01" height="77.01" as="geometry"/>
                </mxCell>
                <mxCell id="47" value="" style="shape=image;verticalLabelPosition=bottom;labelBackgroundColor=#ffffff;verticalAlign=top;aspect=fixed;imageAspect=0;image=data:image/png,iVBORw0KGgoAAAANSUhEUgAAATYAAACjCAMAAAA3vsLfAAABVlBMVEUfIikA3P8A3v8A4P8A4v8fIioA4/8A2/8Z1vYdJCgdIigZGB8gISgA5f8gISogIicaCRMgEx0gISwcv9oZg5gjISYdIyseIyMfIS0iIC0TJDAjICgYHywjCRUgHSMbJScdAAAhIiILq8YjHzEqAAAdRlMfFRcgGB4iAAAaJSkcJSAnHiYWHSEeLTkbIy4YEBkgwuIgFBMiEBMV1/AeAA0mqMcdze0dGCQcAB8WJygoHiUejqAjHh4fFCgZECAjExsfABggOkQlCysRTVYnqbcfWmEpGiodgosXu8wmzOArGC8ba3wddH0eNkkeTmMXERMdl68fIRsdPlEcLEUmABEZFwEcMDQecIkeZnIdSloZlbQhgZ0UFSQdEi8fqLoTAAAWOz8YW24iEgUTVFYTkbQlAB4db3YZNVIovccYbI8MCw4nEgAmHhccXHkK3OoYR2QdzPkbk5ppbGXdAAAUfElEQVR4nO2b7V8ayZbH6a7qR7u6gYZ+sHmQJoBgQKERoyDgGBUWH9BkosYMCZnd2dkZk73z/7/ZU60YzXj37s7ODX5m6/tiBoEm1T+qzvmdU0UkwmAwGAwGg8FgMBgMBoPBYDAYDAaDwWAwGAwGg8FgMBgMBoPBYDAYDAaDwWAwGAzGvMkpcSUSURVVUYS4GvG+vBARDD1i27qgaUpEt5NzHOTTo1J2K1pciAuCrivZSLx8+7xaseKVfL6mZjK6ayvupj3XYT414nFF6aS3q+XV7rZrq647e8G1tKzd6zs71W49lxVcfZ6jfHpsxr/bfRmI8trLvdWYnjVmz6ub+z/sHAzkgAx/q/5LVpnnGJ8edmV/9BnxiEMEDw+715u6krQEw7Lsj0cTiUc85iU8PEoy3R5gaAWCiCgHmCBMzONnir7pWorQSbcDArIFwxa8bsZq2rxH+qQw0iZBg6MXJ7sgE8ehcfdUNzylfmaKEsf7o1qz+0nmyagkzHukT4pcgZOkV0W7Uu+/OwgIT8xqJ1eJjjDiiF/obpxm7eUDJJnp7LxH+qQoHhA0eZ0SVN1zi9V1hHCw9/0vv2FelM/f55KuE8lHtM988IYZkPukfQIr8OaxU+ueyxLGF2OIc4OjYvxmYQrLJuGmpTkO8unx3sT8ZebmsWCtNAotHomcJI7rW0nr9j2NtxgdMtnuczLE0uJtltSsml56M0CShNpN3VmcOdziFRYPinMb4hNEiwWYT93KZmnJSK25LvGSNDqp6XrtNnuWEhi163/nA1ajD+mVMoYKL/ylqwot1sJ4JpvjJbNLLwl4XB7vXef0WaFVOiS43XjscreWG5gP8BMXaqMTr7kruW90C/NAiw0JN1ukhpeNtjFHEiaP5EJOz91WWsUEFtuPLlLDeReI6CEErx+/Ntxa569skKOQJQu3KSGu10cIFHqfbSE0TJ3OZltj/PdSQtb9gS7pL3D0P4RMNv/i1VjUB8NxK5teOgskPFmyOzsyz5tN7za2NXyMZu95SLaWkvH9qcZTAoJbRx33T68rtFLIU5jF9TYSz5/rK4qdS15vryFsvo+erC4VZF58u9TJ2Fk9t3myxqPdR2VT1AWZ56AmQ5hHGIOCROZBPMQPuxXjsSv+MIYXz12MRj+NRivl+Vvv4jnG44/XxXS3unuxLkrY9P2B6U9aPMS4vQ+1frr+fUXmZedREWayYXM8WR/7cGkApk9CEkcmj+aQP46gu6+wiLEo5vfnL9vKsYjN1LQ9GQYwWThMQZhgUYJ0ilEwHF8Vjnlsph9dcjPZyMGzZ2nK+8XzAHMi4iRU9R674g/jRiopnoaBQMvp8+4rZNLPA8J9BpkgLMHiAsVCA0Lga0USXW2IkEAi/vvYY6v0bpEmYo7lOI4bz5UWTbg3CaHEn1tXWMpKKgydQT5nz0s2Ae5RtXv9y5ctjoggFxEhkCPzYHQxvdy9vJxejBLwrCwTwiEpEKVhe6fZURRbyN//mLtFmogZNjW4lmVt7Mgc/QL86O2bDNXJu5qmxQXbcO9fXYu7jg4vuHFLfTA6Q1FyhqHYKVe3VcfVdCupqStuCv4lDmQrq7ZQTs4lM+hu+eNGogXLCSaVPGhf7EwJIrsnxcwtxfdtgoavdg8nJnzJnASa7tU7WeOBr7gnmzYLfnozvACZM9lcN24Yuq57nq3U7l/tuK4VgRc0L+48eGFFjbuu63ku/E+zFUGnf2Y7NRzKtpHUBCM3l/gm6KV3BzIU7ZDzCDKXPl5vD5H4W9G+U0WpLAx5Ml6uL5+JXLAmYli45l4s82C+PCab8Nok4OXuyaZn6vWTk5NodEF5KHqy1Duh1Bsd4/66i1eu7VJxdXX1l5PlXvLUEFTFTiZLeURlk9+t6JmM58xjoRqN6VDkeXHYLrwIMDrLN9pEai24K15Eg6mmRXTP2p8SzF1u9NsYT5oXkwBLCK+/elCbPipbbA1BPuFnsmm9xdHElFvBcJI4Sn+JkEIpdpSAF4KgZU6msXt2TNcr6Vfnk0FLDob+VaFedMu5nb3dy92ArtJgevnjj9O9b75xW9PLyf6YcKJonm/Ur6O+iBPpnYAXz4u6VdkoftibVleNihtfXsf8oN5t8WhqX0eP2jL4E/nTifBlqd2PbRUo/l09q2SOJJokxDC2WbXrN/8KUZO+iccErVc7VtiPMrz61BcJXc4gMcKt0Um47uJOTo8UU+NAxJBY6BYQN9iNJfdHNGuhMLghURQxOfpzE/U/RhGM7jqWSGu0Xao5SukcSWtLPkH+kmVUXl8MYVTi5KhjuytV0PKnAi+13llGKtJ7NYbbRIm6e9cgvydbHL593chpmegE3gUVVphJhX+bBiANCCnRG5bEYLofp1dmqhMiYkmi+ZsmcF6cdMOmiWvF+3uBGCZNWnXAK6T97vRC5O4jidVvnRKMSH1Ch6kVK1tOvma8kyV0KCKxkLEq6QTGEtwNlgudpPWxLfLmWMTjXtxJublKozCEmvWn3p31vZPt6nUm1iuVYr2P/74OiZkDs1yF9Sh8PEc3mkGOgDdC0UqOr6lqlzKRaAqnr8BkowZ5TKcnJIN+AkTjoOiAKyUOJh0SJ+9/+p1sj5Yt/0TU0jkkzYOm7rhlz7OsKFTqSCSTZdfKTKFOorJBptiAsOS1wPFitLdgqStW3C2XNgZIDI7uRnwn23hKGR22wbSFQqBJGqZD6QJmNZZ4Eqz5awFkCvhSgjdweWYXSyJIhUUOiloeZPvMEdp4F5TeCMvwiRwsSliMsFBFLB6kf6KNlhvJwtqXfHPZjI0Wjw/6tRVV8BTbsDIFAuP4vBN31f4AExpr4P5Iopj06gmYlshsWioYKV01dK/7MwSou7ppJhtHbxJmBZQYHL1PHrVeqXHdrcpw3wh/Pkw1G813o4Cns87vg4GrT6mpHpxXo/3V43UQSYJSpK8qydMzarIh/ZD1/zi+aEOex8E0fbo38f31UDfJD3n1rfugpSkU7CdxZfP2b+FkAMvhZUNwvCp/twywX7cMrQLDFu81jbzMj4hr6bNV+kW2L9AdfhycZSxPWXgZtkfWqkUav+3emRxOlrPOppGE1B1cvNfiWsTINKckTCMFsLixm/mKhmfLWr643E2gYLcf0bO/rEa74b8l/7K6Gl2N7X9r2YoJgsZ1JX7nwNIjWC87nZyT3/2iAW82a6r6K0S3YOMuacFQwcxyd+H4MdkgHGGzauccI/cBPA6s8lfXFr1Hz/01gcIV/WvZsoRou7rvCtR91YxnE+pkxYNSxN6FaSthfuh6gquVvVx0VPiYBavsrWiLJLS7m57hacaf21/5H1AaYbT+2sve5cPGGAp3cB81d+e+bO+tiLIECwN92ewrl5PvZC6wfidb2Ge7DT28f/FCs23BWG1jGtGvekmd2lzVqyzSdyN5wdU3U0Zd0V0wrZqWzMc+UT3RuCd0X9IcwpO9mF5LWY6bshqnatyL6PG8u0i15eSUW665+T+/nfcPyOzAF3q2b0HZZwiGEFc3ZIgsaydlx9gIwKly9Nbolp9inB7DH9hvCnpEEGzbLpdfg/kd/D62yYEsy4gmS37t+WpmJW9BTRk1MfUXR41ibAHSbKO+/cwMDVxhI1kxrLLgFb9vRN+lqkfVPZoo+fWG90MQthQGdU/wDKisPDUvGBEVZDeMxfBNwXNPUTRNUf+7e/wnoLyeEH74qudYnqdXas71SKSdj9F13ou1xdAOwMhJwbCUJR/TdsabJPWhWjZrvz6HjHfe+Vo2lNhOLXZ9Ej6+KClhwWinAvBv/OfEHQeJtfAd044St7RMLDWFMqElU9dG1x9ar68cSSLN5Qf1rxehlbQXQ83l5xHtm69QQItXoRpt7fY110pmI5VlCMKmiFtRQ8hsQyqllREYlBg4lV0iyaaEEx+zYENr3srrBLzk9+/K6JlsYiKWq3Q+3BQDrY3TcCbYBRGBcCKeQXCoKyceFg3dfvHJB0tCvQrkABTKud6AdIVo3TDtfD3qe7Jp82mL50/3wBiIB9/1oXLXsme8JOdbWEyky26yOiD4s0jIb9uGo/zbgAdHhqC8VJS8sdU/8sHgmQveI1VCXYlY/TGNUBIep8N6sbNL5aD7MnfZItSVIwdFZWNnQJuZdMsG7A71tSCb38hciLSnjnc6X4euucsm5JzYboA50jpfONkyuldQoT87F9HnRS8PAWk6Nv3ETsNyU70LwsvGc5lHZxk7Hq2OkciLfmrLfqRKKEYs/bQqhXUUKnTiuqpvXVLNwlu9TRk3OzQgWz3znwGNexLdgUB0HobJxE+DbJBFRLKT+dpf3JPNmNsmTOkN1FcIDa+O+s8GoniR+d6E4rth2xByos1GLyM4VtKSCTooRiewYpe7l2O4L0La0ftjvt8BUezKdwmR1lHI77p6OZ4sUK8r8YEctOR7BEHiY/5vhFacWPy5PdorFDYvxVvZ9git1dFx5uuI/0W2Wm5+O/5acwSFE8Kyfy6hwLrOXFKnca3MmrdCXm+OwT5tdz5OMWcm1kRaAvmF+oNzbvc7IIJb2U8FEp1C5Lxup7TkB5EWScHi5vPF1IzFxcXUot74jdBiiQwK/dWMkdQ7x7eyqR8g3MEn/P4QwJOQTa9Ves8TJgmNFRruVWNLUJkOt5W7EcGtQF2zu7Sxc455TKemOLiIZjYf9GsezDZBydZHBOYXSJXq1FaSC0NICIhMexXFE26gvtWzjejPKKxboyW7s5WM6NeHM9neDXlaZpj9rxfiF9msOc62U9vz6t2RDxUjFJFENv23HMT/6MnsCMzCyZDnWm9NmJNUWSxPLpsdW8k+yP33ZctVDC273QobPuJv6Vot2V+HeSOhwQtb0x3XjbuOu1FdsCw3vx3wtIC/KNlKWfG87EdfupWtu067RUi8KKm6DsZSj2RuanYhmbuVrRruXM1t80qIGKXom0NYV1DKIxya1dZwzRwA5hr4DvoslOZ013jtYr/3SMvh6+6uVboIq0se72ZcrzSFygweJ5Y8ByyrU0u+OA9+ipYt+zoItwn3epFcTq1Z1zufb1OCSq+Bqh79rbpVqVmqYOXeFPYtS9W9rPs8zC9iYcPKu+X5/lDiNB+IcsInODyJAGEFHhFIbaChFFoqUX45JuJw6dEjHV/LpgnL5o3HGCzpcQXKcuotSLsb61TsTr2bIKLYbrparBX6tMlSx4LZln5lzjKpqveh5qVbtMHxUqdT6kU/DIOjDaeWTyrxGBUbPm2pcd1YmIfj/ULxAiNzeen90Scw7FBaIdrPpgYUS2TNH58fZ5uNfCAFzspjV38tm5E9Pb7pJ5LzmKr2pgRLYCew/Nve2eW0DaaDcMR/I/T9cDeFTM5OlvofDgLa87iV7fTyMzhj2tT1E9NPVwMsSsGHesXR4rX0ILwKj0ejq3b+sfF8M4oJMBWlSm6jVzxZOoaSflwt7BYKOyaP1n6oF0sxiETRAYd3H90s/t0i7ThLYVdM4lu10xVrNRHWHDwmUDwRQtufCAc7mRtxIToQuSXD1EbiLLYJRv2ccDjcYqTPh5Yv2EnmXbdWT4SJg1CG3blOt9gY41EpYtAOjtFIQJweLW3tQ1rlcAFqJHha05sTgke9x67Wa92AtrrxQcwJjZYhJM9AJbhXNI5W7HyzLeLbCgEMHW1z44CeC4tORDHcKqD7LFB0Tegb0ORZXvdyLxK0Rx6+iFBAN3J5v2gLEUFLtXi4CpSUudb2XGWLTjDeuw32jrr8kkfBbiPd5jA5LN2GM7Ux5snjZ3etsh3QE23iwXV2dgA4NqaVJ5iy3fpmMpc+DGhjgLvZUEBYND/QclNbmIQbMDSAwryapESJyvZr1tMrye2LQKQFBMeHGxFENF95YVeyNKXdKXqGQGrNN7hFTYRnxwI9y942CQmORrAS2ku2c3d2F/589Oyu6pZ5iPIiScSSM0OXq8o0pxBiPk+u5JWTD29lutdCl6qIW1dFw6Hvuk6fm7SKotsYwUG6HH6Kn/a2VLuS671pt+gFUngsZThaPVUd+otNZfvHn0MTiYm8ONdjblGTF2cjUFxHedPiSSuAO2gqwpezuwhPHpUt515fFihVpzxLtapXOAufu6wZas3Vc3VrNDZbgDnZ2yjmbipKI9f74VMbjM7g5SgfSyXDjzlaqRmGqnk1u1j+NB4M/9YaDtrHq8+tStKik0vNld59ejsZDNYTx95cZUu3MFm8O/KctUpn9OALP0jlvMqsgQqycf6jshmqnQtPjCRVYeajBCGzEj5ZgmikqeBatVI6ugpEYyVDjeTC7WVVoEcZmuCrY6Wk4Ro3n2IIoIYgGBEvV2xE6UXRXoYeIFFUOkZ45JUazWYz3VuZrwGBRYpmWwOC5+bdpSuwuMFlvZa6O7BBD9hP/o+/S9CMP9BbNObUWfvHnJjo7lcwEbWcax4QsLuiPG0qanJ2UvwKk/ajmfT/LUUfi7PjzHGrsTqhp9xa4N8S0cytakJjTFAiNr8xPkHS1O42BEs3BM1oFExIguunR0OR4/3qteLm1ayTiw4xYj9Ve8DWpYiGLza9XLZWikHJiMS3C56Rf4kRlg8/5pTTnF48xnwQn28IfmpU6kMsJpYbp42NRAt8fDBq6KraiV7RA89ro9Jqvf7Ox/hlg/0M9z7ZzqEItc15YhKIMNX8Dz0L6r+ysrRL+7moNWm3TcIHBY3Jdh9dS/uEp50iKJGHo66bNRxXUGtGpngl075ReHi83Z/Lmc+ni1Pb+s5HmB4wXTvvNpRZZaA7lfQPVwNCaxk50bOt+FyH+dTw3PJWeicxbo/Ouo2tiHXXVvPiSqdx8uGw3R6litmy963PfD5t1C3X2YzEGvViRq2lXH32Q+/IvuPk3XimV4xt2JHU/l/7Z7X/a1JGvGY5rqZauqcrRuTuNLOlJC1FiztK3HUNK1l25jlKBoPBYDAYDAaDwWAwGAwGg8FgMBgMBoPBYDAYDAaDwWAwGAwGg8FgMBgMBoPBYDAYDAaDwWAwGAwG4wnzX4eUmDy3YsVeAAAAAElFTkSuQmCC;fontSize=14;" vertex="1" parent="1">
                    <mxGeometry x="-203.99" y="20" width="74.61" height="39.23" as="geometry"/>
                </mxCell>
                <mxCell id="65" value="Polly" style="sketch=0;points=[[0,0,0],[0.25,0,0],[0.5,0,0],[0.75,0,0],[1,0,0],[0,1,0],[0.25,1,0],[0.5,1,0],[0.75,1,0],[1,1,0],[0,0.25,0],[0,0.5,0],[0,0.75,0],[1,0.25,0],[1,0.5,0],[1,0.75,0]];outlineConnect=0;fontColor=#232F3E;gradientColor=#4AB29A;gradientDirection=north;fillColor=#116D5B;strokeColor=#ffffff;dashed=0;verticalLabelPosition=bottom;verticalAlign=top;align=center;html=1;fontSize=14;fontStyle=0;aspect=fixed;shape=mxgraph.aws4.resourceIcon;resIcon=mxgraph.aws4.polly;" vertex="1" parent="1">
                    <mxGeometry x="682" y="-160" width="78" height="78" as="geometry"/>
                </mxCell>
                <mxCell id="67" value="Backup" style="sketch=0;points=[[0,0,0],[0.25,0,0],[0.5,0,0],[0.75,0,0],[1,0,0],[0,1,0],[0.25,1,0],[0.5,1,0],[0.75,1,0],[1,1,0],[0,0.25,0],[0,0.5,0],[0,0.75,0],[1,0.25,0],[1,0.5,0],[1,0.75,0]];outlineConnect=0;fontColor=#232F3E;gradientColor=#60A337;gradientDirection=north;fillColor=#277116;strokeColor=#ffffff;dashed=0;verticalLabelPosition=bottom;verticalAlign=top;align=center;html=1;fontSize=14;fontStyle=0;aspect=fixed;shape=mxgraph.aws4.resourceIcon;resIcon=mxgraph.aws4.backup;" vertex="1" parent="1">
                    <mxGeometry x="782" y="-160" width="78" height="78" as="geometry"/>
                </mxCell>
                <mxCell id="68" value="Batch" style="sketch=0;points=[[0,0,0],[0.25,0,0],[0.5,0,0],[0.75,0,0],[1,0,0],[0,1,0],[0.25,1,0],[0.5,1,0],[0.75,1,0],[1,1,0],[0,0.25,0],[0,0.5,0],[0,0.75,0],[1,0.25,0],[1,0.5,0],[1,0.75,0]];outlineConnect=0;fontColor=#232F3E;gradientColor=#F78E04;gradientDirection=north;fillColor=#D05C17;strokeColor=#ffffff;dashed=0;verticalLabelPosition=bottom;verticalAlign=top;align=center;html=1;fontSize=14;fontStyle=0;aspect=fixed;shape=mxgraph.aws4.resourceIcon;resIcon=mxgraph.aws4.batch;" vertex="1" parent="1">
                    <mxGeometry x="882" y="-160" width="78" height="78" as="geometry"/>
                </mxCell>
                <mxCell id="69" value="Lambda" style="sketch=0;points=[[0,0,0],[0.25,0,0],[0.5,0,0],[0.75,0,0],[1,0,0],[0,1,0],[0.25,1,0],[0.5,1,0],[0.75,1,0],[1,1,0],[0,0.25,0],[0,0.5,0],[0,0.75,0],[1,0.25,0],[1,0.5,0],[1,0.75,0]];outlineConnect=0;fontColor=#232F3E;gradientColor=#F78E04;gradientDirection=north;fillColor=#D05C17;strokeColor=#ffffff;dashed=0;verticalLabelPosition=bottom;verticalAlign=top;align=center;html=1;fontSize=14;fontStyle=0;aspect=fixed;shape=mxgraph.aws4.resourceIcon;resIcon=mxgraph.aws4.lambda;" vertex="1" parent="1">
                    <mxGeometry x="982" y="-160" width="78" height="78" as="geometry"/>
                </mxCell>
            </root>
        </mxGraphModel>
    </diagram>
</mxfile>